<?xml version="1.0" encoding="UTF-8"?> <svg xmlns="http://www.w3.org/2000/svg" viewBox="0 0 101.67 101.67"> <defs> <style>.cls-1{opacity:0.7;}.cls-2{fill:#5199ff;}</style> </defs> <title>1Education</title> <g id="Слой_2" data-name="Слой 2"> <g id="Слой_1-2" data-name="Слой 1"> <g class="cls-1"> <path class="cls-2" d="M50.83,101.67a50.84,50.84,0,1,1,50.84-50.84A50.89,50.89,0,0,1,50.83,101.67ZM50.83,2A48.84,48.84,0,1,0,99.67,50.83,48.89,48.89,0,0,0,50.83,2Z"></path> </g> <path class="cls-2" d="M35.83,32.87l6,2.65a10.57,10.57,0,1,0,17.56.09l5.29-2.49v10l-1.61,3.45a.73.73,0,0,0,.06.73.87.87,0,0,0,.67.36h3a.6.6,0,0,0,.62-.36.71.71,0,0,0,.06-.73l-1.35-3.42V32.41c0-.42,0-.73-.77-1C65.2,31.41,50.93,25,50.93,25a.62.62,0,0,0-.62,0L35.83,31.47a.89.89,0,0,0-.46.73A.78.78,0,0,0,35.83,32.87Zm23.72,8.6a9,9,0,1,1-18.06,0,9.31,9.31,0,0,1,1.71-5.29l7.06,3.17a.94.94,0,0,0,.62,0l7-3.12A8.66,8.66,0,0,1,59.55,41.47ZM65,46.14l.37-.77.31.77ZM50.62,26.54l12.61,5.61-12.61,5.6L38,32.15Z"></path> <path class="cls-2" d="M50.83,53.89A18.4,18.4,0,0,0,32.46,72.25a.79.79,0,0,0,.78.78H68.42a.78.78,0,0,0,.78-.78A18.39,18.39,0,0,0,50.83,53.89ZM34.07,71.47a16.8,16.8,0,0,1,33.57,0Z"></path> </g> </g> </svg> 