<?xml version="1.0" encoding="UTF-8"?> <svg xmlns="http://www.w3.org/2000/svg" viewBox="0 0 101.67 101.67"> <defs> <style>.cls-1{opacity:0.7;}.cls-2{fill:#5199ff;}</style> </defs> <title>1Example</title> <g id="Слой_2" data-name="Слой 2"> <g id="Слой_1-2" data-name="Слой 1"> <g class="cls-1"> <path class="cls-2" d="M50.83,101.67a50.84,50.84,0,1,1,50.84-50.84A50.89,50.89,0,0,1,50.83,101.67ZM50.83,2A48.84,48.84,0,1,0,99.67,50.83,48.89,48.89,0,0,0,50.83,2Z"></path> </g> <path class="cls-2" d="M48.93,63.25v-8h-6.7V30.17h31.1V55.25H57Zm-4.7-10h6.7v5.21l5.29-5.21H71.33V32.17H44.23Z"></path> <polygon class="cls-2" points="44.33 76.59 36.2 67.97 28.33 67.97 28.33 42.87 43.23 42.87 43.23 44.87 30.33 44.87 30.33 65.97 37.06 65.97 42.33 71.55 42.33 65.97 58.83 65.97 58.83 54.57 60.83 54.57 60.83 67.97 44.33 67.97 44.33 76.59"></polygon> <path class="cls-2" d="M50.53,40a2.7,2.7,0,0,1,0-5.4h0a2.7,2.7,0,0,1,0,5.4Zm0-3.4h0a.75.75,0,0,0-.5.21.71.71,0,0,0,0,1h0a.66.66,0,0,0,.49.2.76.76,0,0,0,.5-.21.64.64,0,0,0,.2-.49.71.71,0,0,0-.7-.7Z"></path> <path class="cls-2" d="M58.33,40a2.7,2.7,0,0,1,0-5.4h0a2.7,2.7,0,0,1,0,5.4Zm0-3.4a.7.7,0,0,0-.7.7.7.7,0,0,0,.7.7h0a.62.62,0,0,0,.5-.21.64.64,0,0,0,.2-.49.7.7,0,0,0-.21-.5A.68.68,0,0,0,58.33,36.57Z"></path> </g> </g> </svg> 