<?xml version="1.0" encoding="UTF-8"?> <svg xmlns="http://www.w3.org/2000/svg" viewBox="0 0 101.67 101.67"> <defs> <style>.cls-1{opacity:0.7;}.cls-2{fill:#5199ff;}</style> </defs> <title>1Experience</title> <g id="Слой_2" data-name="Слой 2"> <g id="Слой_1-2" data-name="Слой 1"> <g class="cls-1"> <path class="cls-2" d="M50.83,101.67a50.84,50.84,0,1,1,50.84-50.84A50.89,50.89,0,0,1,50.83,101.67ZM50.83,2A48.84,48.84,0,1,0,99.67,50.83,48.89,48.89,0,0,0,50.83,2Z"></path> </g> <path class="cls-2" d="M76.47,56.43,72.09,54V46.51l4.38-2.43a.78.78,0,0,0,.39-.57.69.69,0,0,0-.42-.59L53.92,30.15a1.24,1.24,0,0,0-1,0L25.09,45.73a.48.48,0,0,0-.24.2h0a.47.47,0,0,0-.12.39V60.06a.66.66,0,0,0,.42.6L47.7,73.28a.81.81,0,0,0,.48.15.7.7,0,0,0,.47-.15L76.53,57.67a.75.75,0,0,0,.42-.59A.92.92,0,0,0,76.47,56.43Zm-23-24.7,21,11.72L71,45.34a1.38,1.38,0,0,0-.48.25L48.12,58.07,31.31,48.73c-.06,0-.12,0-.12-.1l-4-2.24Zm-21.84,19,16,8.94a1.17,1.17,0,0,0,1,0L70.32,47.44v6.07L48.24,65.73,31.6,56.83v-6.1Zm16.52,21L26.45,59.61V47.79l3.41,1.88v7.56a.8.8,0,0,0,.42.64l17.58,9.44a.65.65,0,0,0,.47.1,1.18,1.18,0,0,0,.48-.1l22.1-12.22,3.49,2Z"></path> <path class="cls-2" d="M49.6,38.51l10.53,6.07a.9.9,0,0,0,.48.14.81.81,0,0,0,.71-.34.68.68,0,0,0-.07-.94l-.17-.11L50.6,37.25a1,1,0,0,0-1.24.2.65.65,0,0,0,.06.93A.46.46,0,0,0,49.6,38.51Z"></path> </g> </g> </svg> 