<?xml version="1.0" encoding="UTF-8"?> <svg xmlns="http://www.w3.org/2000/svg" viewBox="0 0 101.67 101.67"> <defs> <style>.cls-1{fill:#5199ff;}.cls-2{opacity:0.7;}</style> </defs> <title>1Diplom</title> <g id="Слой_2" data-name="Слой 2"> <g id="Слой_1-2" data-name="Слой 1"> <path class="cls-1" d="M77.27,31.43a1,1,0,0,0-1-1h0l-51,.1a1.07,1.07,0,0,0-.69.29.94.94,0,0,0-.29.69l.08,36.7a1,1,0,0,0,1,1h14l-.75,1a1,1,0,0,0,1,1.52L44,70.8l.8,4.13a1,1,0,0,0,.81.79h.19a1,1,0,0,0,.86-.52l3.27-6h2.41l3.2,6.12a1,1,0,0,0,.87.52h.13a1,1,0,0,0,.83-.77L58.19,71l4.36,1a1,1,0,0,0,1.21-.74s0-.06,0-.1a1,1,0,0,0-.13-.67l-.87-1.28h13.6a1,1,0,0,0,1-1Zm-31,40.42-.42-2.37a1,1,0,0,0-1.17-.77l-2.91.62L42,69a1,1,0,0,0,.32-.45l3.43-4.79a8.39,8.39,0,0,0,3.87,1.9l-1,1.87a1.07,1.07,0,0,0-.25.47ZM57.77,57.4a6.47,6.47,0,0,1-6.47,6.43h0a6.5,6.5,0,0,1,0-13h0a6.49,6.49,0,0,1,6.43,6.52Zm-6.71,9.81.17-.32.16.32Zm6.66,1.59a1,1,0,0,0-.75.13,1.06,1.06,0,0,0-.43.63l-.48,2.36-3.29-6.29a8.37,8.37,0,0,0,3.93-1.85l3.89,5.66Zm3.7-1.62-3.33-4.84a8.43,8.43,0,0,0-6.73-13.42H51.3a8.41,8.41,0,0,0-6.87,13.32l-3.53,5H26.38L26.31,32.5l49-.1.08,34.74Z"></path> <path class="cls-1" d="M60.18,38.26l-18.7-.13h0a1,1,0,0,0,0,2l18.7.14h0a1,1,0,0,0,0-2Z"></path> <path class="cls-1" d="M60.18,42.68l-18.7-.14h0a1,1,0,0,0,0,2l18.7.13h0a1,1,0,0,0,0-2Z"></path> <g class="cls-2"> <path class="cls-1" d="M50.83,101.67a50.84,50.84,0,1,1,50.84-50.84A50.89,50.89,0,0,1,50.83,101.67ZM50.83,2A48.84,48.84,0,1,0,99.67,50.83,48.89,48.89,0,0,0,50.83,2Z"></path> </g> </g> </g> </svg> 